HIERARCHY
ROOT Hips
{
    OFFSET 0.000000 0.000000 0.000000
    CHANNELS 6 Xposition Yposition Zposition Zrotation Xrotation Yrotation
    JOINT Spine
    {
        OFFSET -0.000000 7.979263 0.000000
        CHANNELS 3 Zrotation Xrotation Yrotation
        JOINT Spine1
        {
            OFFSET -0.000000 24.719021 0.000000
            CHANNELS 3 Zrotation Xrotation Yrotation
            JOINT Neck
            {
                OFFSET -0.000000 24.617504 2.237955
                CHANNELS 3 Zrotation Xrotation Yrotation
                JOINT Head
                {
                    OFFSET -0.000000 13.623132 -1.946162
                    CHANNELS 3 Zrotation Xrotation Yrotation
                    End Site
                    {
                        OFFSET -0.000000 24.327021 0.000000
                    }
                }
            }
            JOINT LeftShoulder
            {
                OFFSET 3.885773 23.018444 -0.302444
                CHANNELS 3 Zrotation Xrotation Yrotation
                JOINT LeftArm
                {
                    OFFSET 10.447750 0.000000 0.000000
                    CHANNELS 3 Zrotation Xrotation Yrotation
                    JOINT LeftForeArm
                    {
                        OFFSET 29.090096 0.000000 0.000000
                        CHANNELS 3 Zrotation Xrotation Yrotation
                        JOINT LeftHand
                        {
                            OFFSET 28.893339 0.000000 0.000000
                            CHANNELS 3 Zrotation Xrotation Yrotation
                            End Site
                            {
                                OFFSET 14.596213 0.000000 0.000000
                            }
                        }
                    }
                }
            }
            JOINT RightShoulder
            {
                OFFSET -3.864586 23.018444 -0.302444
                CHANNELS 3 Zrotation Xrotation Yrotation
                JOINT RightArm
                {
                    OFFSET -10.447750 0.000000 0.000000
                    CHANNELS 3 Zrotation Xrotation Yrotation
                    JOINT RightForeArm
                    {
                        OFFSET -29.090096 0.000000 0.000000
                        CHANNELS 3 Zrotation Xrotation Yrotation
                        JOINT RightHand
                        {
                            OFFSET -28.893339 0.000000 0.000000
                            CHANNELS 3 Zrotation Xrotation Yrotation
                            End Site
                            {
                                OFFSET -14.596213 0.000000 0.000000
                            }
                        }
                    }
                }
            }
        }
    }
    JOINT LeftUpLeg
    {
        OFFSET 9.730808 0.000000 0.000000
        CHANNELS 3 Zrotation Xrotation Yrotation
        JOINT LeftLeg
        {
            OFFSET -0.000000 -34.800129 0.000000
            CHANNELS 3 Zrotation Xrotation Yrotation
            JOINT LeftFoot
            {
                OFFSET -0.000000 -44.597416 0.000000
                CHANNELS 3 Zrotation Xrotation Yrotation
                JOINT LeftToeBase
                {
                    OFFSET -0.000000 -6.325025 14.596213
                    CHANNELS 3 Zrotation Xrotation Yrotation
                    End Site
                    {
                        OFFSET -0.000000 0.000000 3.892323
                    }
                }
            }
        }
    }
    JOINT RightUpLeg
    {
        OFFSET -9.730808 0.000000 0.000000
        CHANNELS 3 Zrotation Xrotation Yrotation
        JOINT RightLeg
        {
            OFFSET -0.000000 -34.800129 0.000000
            CHANNELS 3 Zrotation Xrotation Yrotation
            JOINT RightFoot
            {
                OFFSET -0.000000 -44.597416 0.000000
                CHANNELS 3 Zrotation Xrotation Yrotation
                JOINT RightToeBase
                {
                    OFFSET -0.000000 -6.325025 14.596213
                    CHANNELS 3 Zrotation Xrotation Yrotation
                    End Site
                    {
                        OFFSET -0.000000 0.000000 3.892323
                    }
                }
            }
        }
    }
}
MOTION
Frames:    4
Frame Time:    0.008333
21.393585    79.959129    42.471790    -26.924791    -6.327118    96.256851    2.183380    12.702026    1.264459    2.652231    -9.423055    1.726194    -1.302957    2.590135    6.047222    0.853949    -10.900864    6.653735    2.770532    4.139618    -19.569292    -46.683670    31.465317    7.471456    20.697325    -22.546024    -22.783051    0.930098    -18.640459    -5.581813    -7.804350    1.676552    5.543103    38.624641    32.781082    11.271831    -16.662451    -22.905001    23.673435    -13.377819    -20.943624    11.926035    9.131004    -61.116631    5.487869    1.040232    42.883900    3.342654    -4.889978    -11.258943    3.267907    0.000000    0.000000    0.000000    -6.879648    -58.881199    -17.378468    -3.153630    41.849968    -6.481405    6.264944    -9.658086    6.179657    0.000000    0.000000    0.000000    
21.025921    79.317062    42.490253    -27.678885    -6.334863    96.006828    2.326077    13.374477    1.294710    2.417446    -9.761808    1.773959    -1.188986    1.993071    6.107698    0.708026    -11.428184    6.677471    2.497232    4.172991    -19.753725    -48.138458    33.101215    7.842093    20.697062    -22.358856    -22.633850    0.816476    -18.473904    -6.130484    -7.391977    1.734327    5.853201    39.357826    34.050774    11.320121    -16.437422    -23.223532    23.547379    -14.059013    -21.495588    12.779487    9.793057    -63.023266    6.513356    1.378881    44.457104    2.900197    -4.610514    -12.096540    3.369303    0.000000    0.000000    0.000000    -7.805216    -60.806385    -18.811813    -3.664295    43.341305    -6.303520    6.703910    -10.261916    7.016908    0.000000    0.000000    0.000000    
20.695829    78.638618    42.474926    -28.495882    -6.304864    95.752052    2.390759    13.887078    1.407801    2.244899    -9.982416    1.895101    -1.063064    1.145640    6.094468    0.515785    -11.622076    6.610209    2.310570    4.135004    -20.215687    -49.785469    34.343807    8.423377    20.079573    -22.026293    -22.867283    1.151842    -18.236097    -6.722637    -7.085433    1.473949    5.960982    40.307480    35.711472    11.247806    -15.958100    -23.414415    23.250790    -15.205253    -22.015633    13.342264    10.445959    -64.968307    7.563749    1.755238    46.044323    2.390629    -4.090638    -12.974006    3.554572    0.000000    0.000000    0.000000    -9.161162    -62.793903    -20.450270    -3.920115    44.949310    -6.197421    7.141709    -10.893841    7.724532    0.000000    0.000000    0.000000    
20.412371    77.947182    42.467937    -29.252529    -6.235147    95.517639    2.440844    14.621420    1.394346    2.086060    -10.532063    1.899857    -1.322331    0.217445    6.016078    0.834284    -11.505691    6.651231    1.889798    4.040190    -20.273956    -51.720520    36.574432    9.427382    19.506086    -21.800205    -22.808962    1.379758    -18.148691    -7.400640    -6.789646    1.323630    6.198717    41.414841    37.554092    11.157849    -15.399976    -23.715044    22.985456    -16.895248    -22.616863    13.115078    11.179400    -66.848236    8.837517    2.313114    47.691582    1.573505    -3.768361    -14.020582    3.761365    0.000000    0.000000    0.000000    -10.685698    -64.690796    -22.185406    -4.176832    46.595570    -5.852872    7.440042    -11.594650    8.168456    0.000000    0.000000    0.000000    
